<svg width="24" height="24" viewBox="0 0 24 24" fill="none" xmlns="http://www.w3.org/2000/svg">
<path d="M12 24C18.6274 24 24 18.6274 24 12C24 5.37258 18.6274 0 12 0C5.37258 0 0 5.37258 0 12C0 18.6274 5.37258 24 12 24Z" fill="#FFCE00"/>
<path d="M23.9999 12C23.9999 10.9676 23.8695 9.96564 23.6243 9.00972L19.7288 5.11417L4.271 19.4483L8.21286 23.3901C9.40334 23.7858 10.6766 24 11.9999 24C18.6273 24 23.9999 18.6274 23.9999 12Z" fill="#FFA300"/>
<path d="M4.271 5.11417H19.7287V7.66402H4.271V5.11417Z" fill="#7584F2"/>
<path d="M11.9917 5.11417H19.7291V7.66398H11.9917V5.11417Z" fill="#606AEA"/>
<path d="M4.271 7.54834H19.7287V19.4484H4.271V7.54834Z" fill="white"/>
<path d="M11.9917 7.54825H19.7291V19.4483H11.9917V7.54825Z" fill="#E9EDF5"/>
<path d="M18.2189 7.09923C18.6111 7.09923 18.929 6.7813 18.929 6.38912C18.929 5.99694 18.6111 5.67902 18.2189 5.67902C17.8267 5.67902 17.5088 5.99694 17.5088 6.38912C17.5088 6.7813 17.8267 7.09923 18.2189 7.09923Z" fill="#4855B7"/>
<path d="M16.1422 7.09923C16.5344 7.09923 16.8523 6.7813 16.8523 6.38912C16.8523 5.99694 16.5344 5.67902 16.1422 5.67902C15.7501 5.67902 15.4321 5.99694 15.4321 6.38912C15.4321 6.7813 15.7501 7.09923 16.1422 7.09923Z" fill="#4855B7"/>
<path d="M9.84585 11.8913C10.0333 10.9589 9.42936 10.0511 8.49694 9.86364C7.56452 9.67621 6.6567 10.2801 6.46926 11.2126C6.28183 12.145 6.88576 13.0528 7.81818 13.2402C8.7506 13.4277 9.65842 12.8237 9.84585 11.8913Z" fill="#FFCDBE"/>
<path d="M4.8667 17.0914C4.8667 15.2718 6.34176 13.7968 8.16131 13.7968C9.98086 13.7968 11.4559 15.2718 11.4559 17.0914H4.8667Z" fill="#FF6C52"/>
<path d="M13.6094 9.68988H15.3809V11.4614H13.6094V9.68988Z" fill="#FF6C52"/>
<path d="M16.5518 9.68988H18.3233V11.4614H16.5518V9.68988Z" fill="#1DD882"/>
<path d="M13.6094 12.5049H15.3809V14.2764H13.6094V12.5049Z" fill="#BEC3D2"/>
<path d="M16.5518 12.5049H18.3233V14.2764H16.5518V12.5049Z" fill="#BEC3D2"/>
<path d="M13.6094 15.3199H15.3809V17.0914H13.6094V15.3199Z" fill="#BEC3D2"/>
<path d="M16.5518 15.3199H18.3233V17.0914H16.5518V15.3199Z" fill="#BEC3D2"/>
</svg>
