<svg width="33" height="33" viewBox="0 0 33 33" fill="none" xmlns="http://www.w3.org/2000/svg">
<g clip-path="url(#clip0)">
<path d="M16.5138 32.72C25.5492 32.72 32.8738 25.3954 32.8738 16.36C32.8738 7.32462 25.5492 0 16.5138 0C7.47843 0 0.153809 7.32462 0.153809 16.36C0.153809 25.3954 7.47843 32.72 16.5138 32.72Z" fill="#FFD321"/>
<path d="M32.8736 16.36C32.8736 15.5206 32.8101 14.696 32.6882 13.8907L26.05 7.25247L7.40601 25.8964L14.0443 32.5346C14.8496 32.6565 15.6742 32.72 16.5136 32.72C25.549 32.72 32.8736 25.3954 32.8736 16.36Z" fill="#FF9D21"/>
<path d="M16.5137 27.7907C22.8267 27.7907 27.9444 22.673 27.9444 16.36C27.9444 10.047 22.8267 4.92929 16.5137 4.92929C10.2007 4.92929 5.08301 10.047 5.08301 16.36C5.08301 22.673 10.2007 27.7907 16.5137 27.7907Z" fill="#FFF0D7"/>
<path d="M27.9448 16.36C27.9448 22.6733 22.8272 27.7909 16.5139 27.7909V4.92908C22.8272 4.92908 27.9448 10.0467 27.9448 16.36Z" fill="#F2C697"/>
<path d="M19.6497 20.858L15.3955 16.8422V9.86047H17.6322V15.8778L21.1851 19.2316L19.6497 20.858Z" fill="#565656"/>
<path d="M21.1855 19.2313L19.6498 20.8584L16.5139 17.8982V9.86075H17.6323V15.8775L21.1855 19.2313Z" fill="#2F3030"/>
<path d="M16.5139 29.5531C9.23922 29.5531 3.3208 23.6347 3.3208 16.36C3.3208 9.08529 9.23922 3.16693 16.5139 3.16693C23.7885 3.16693 29.7069 9.08535 29.7069 16.36C29.7069 23.6346 23.7885 29.5531 16.5139 29.5531ZM16.5139 6.26261C10.9462 6.26261 6.41648 10.7923 6.41648 16.36C6.41648 21.9277 10.9462 26.4574 16.5139 26.4574C22.0816 26.4574 26.6112 21.9277 26.6112 16.36C26.6112 10.7923 22.0816 6.26261 16.5139 6.26261Z" fill="#544ED1"/>
<path d="M16.5139 3.16721V6.26282C22.0814 6.26282 26.6111 10.7925 26.6111 16.36C26.6111 21.9275 22.0814 26.4572 16.5139 26.4572V29.5528C23.7884 29.5528 29.7067 23.6345 29.7067 16.36C29.7067 9.08556 23.7884 3.16721 16.5139 3.16721Z" fill="#3D38BE"/>
</g>
<defs>
<clipPath id="clip0">
<rect width="32.72" height="32.72" fill="white" transform="translate(0.153809)"/>
</clipPath>
</defs>
</svg>
