<svg width="24" height="24" viewBox="0 0 24 24" fill="none" xmlns="http://www.w3.org/2000/svg">
<path d="M12 24C18.6274 24 24 18.6274 24 12C24 5.37258 18.6274 0 12 0C5.37258 0 0 5.37258 0 12C0 18.6274 5.37258 24 12 24Z" fill="#7584F2"/>
<path d="M12.4954 23.99C18.8931 23.7301 24 18.4615 24 12C24 11.2232 23.9261 10.4636 23.7851 9.72788L17.2275 3.17026L6.55566 5.82779L9.83424 18.2747L8.56505 20.0597L12.4954 23.99Z" fill="#606AEA"/>
<path d="M17.2277 3.17026H6.77259L4.8584 6.47584H19.1729L17.2277 3.17026Z" fill="#FF583E"/>
<path d="M17.2272 3.17026H12.0054V6.47584H19.1724L17.2272 3.17026Z" fill="#F92814"/>
<path d="M13.6249 17.1537H9.04352L4.09619 6.47583L6.77271 3.17026L13.6249 17.1537Z" fill="#FF8870"/>
<path d="M10.3755 17.1537H14.9569L19.9042 6.47583L17.2277 3.17026L10.3755 17.1537Z" fill="#FF583E"/>
<path d="M12.0002 21.5749C14.569 21.5749 16.6514 19.4925 16.6514 16.9237C16.6514 14.355 14.569 12.2726 12.0002 12.2726C9.4315 12.2726 7.34912 14.355 7.34912 16.9237C7.34912 19.4925 9.4315 21.5749 12.0002 21.5749Z" fill="#FFCE00"/>
<path d="M16.6508 16.9237C16.6508 14.3569 14.5715 12.2758 12.0054 12.2727V21.5748C14.5715 21.5717 16.6508 19.4906 16.6508 16.9237Z" fill="#FDBA12"/>
</svg>
