<svg width="24" height="24" viewBox="0 0 24 24" fill="none" xmlns="http://www.w3.org/2000/svg">
<g clip-path="url(#clip0)">
<path d="M20.4813 20.484C25.1669 15.7984 25.1669 8.20161 20.4813 3.51603C15.7957 -1.16955 8.19888 -1.16955 3.5133 3.51603C-1.17229 8.20161 -1.17229 15.7984 3.5133 20.484C8.19888 25.1696 15.7957 25.1696 20.4813 20.484Z" fill="#FFCE00"/>
<path d="M23.9662 12.9036L17.8946 6.83194L6.10498 20.391L9.44046 23.7265C10.2651 23.9056 11.1214 24 11.9997 24C18.3232 24 23.5043 19.109 23.9662 12.9036Z" fill="#FFA300"/>
<path d="M14.6716 3.60904L17.8945 6.83193V20.391H6.10498V3.60904H14.6716Z" fill="white"/>
<path d="M17.895 6.83198L14.6721 3.60904H12.0059V20.391H17.895V6.83198Z" fill="#E9EDF5"/>
<path d="M14.6719 6.83192V3.60904L17.8948 6.83192H14.6719Z" fill="#BEC3D2"/>
<path d="M15.6468 10.5792C15.9736 8.56326 14.6043 6.66412 12.5884 6.33733C10.5725 6.01053 8.67339 7.37983 8.34659 9.39574C8.0198 11.4117 9.3891 13.3108 11.405 13.6376C13.4209 13.9644 15.32 12.5951 15.6468 10.5792Z" fill="#FF6C52"/>
<path d="M15.6984 9.98819C15.6984 7.94763 14.0457 6.29322 12.0059 6.29013V13.6862C14.0457 13.6832 15.6984 12.0288 15.6984 9.98819Z" fill="#FF432E"/>
<path d="M11.9053 11.7874L11.748 11.3394H10.4942L10.3369 11.7874H9.40723L10.6038 8.67496H11.6335L12.8349 11.7874H11.9053ZM11.1186 9.46822L10.7134 10.6395H11.5238L11.1186 9.46822Z" fill="white"/>
<path d="M13.955 9.32025V10.2208H13.402V9.32025H12.6011V8.83031H13.402V7.96701H13.955V8.83031H14.7559V9.32029H13.955V9.32025Z" fill="#E9EDF5"/>
<path d="M7.72754 14.6605H9.0256V16.0667H7.72754V14.6605Z" fill="#555A66"/>
<path d="M9.87207 14.6605H16.0301V16.0667H9.87207V14.6605Z" fill="#DCE1EB"/>
<path d="M12.0059 14.6605H16.0304V16.0667H12.0059V14.6605Z" fill="#BEC3D2"/>
<path d="M7.72754 17.3635H9.0256V18.7697H7.72754V17.3635Z" fill="#555A66"/>
<path d="M9.87207 17.3635H16.0301V18.7697H9.87207V17.3635Z" fill="#DCE1EB"/>
<path d="M12.0059 17.3635H16.0304V18.7697H12.0059V17.3635Z" fill="#BEC3D2"/>
</g>
<defs>
<clipPath id="clip0">
<rect width="24" height="24" fill="white"/>
</clipPath>
</defs>
</svg>
