<svg width="89" height="89" viewBox="0 0 89 89" fill="none" xmlns="http://www.w3.org/2000/svg">
<path d="M89 44.5C89 69.0767 69.0767 89 44.5 89C19.9233 89 0 69.0767 0 44.5C0 19.9233 19.9233 0 44.5 0C69.0767 0 89 19.9233 89 44.5ZM7.94029 44.5C7.94029 64.6914 24.3086 81.0597 44.5 81.0597C64.6914 81.0597 81.0597 64.6914 81.0597 44.5C81.0597 24.3086 64.6914 7.94029 44.5 7.94029C24.3086 7.94029 7.94029 24.3086 7.94029 44.5Z" fill="#EEEEEE"/>
<path d="M4.47483 50.8734C2.30946 51.2182 0.815982 53.2595 1.35233 55.3855C3.0967 62.3 6.48294 68.7142 11.2475 74.0719C16.8941 80.4214 24.2406 85.0215 32.4184 87.3285C40.5963 89.6355 49.2637 89.5529 57.3962 87.0906C65.5286 84.6282 72.7861 79.889 78.3107 73.4331C83.8353 66.9772 87.3961 59.0746 88.5722 50.6593C89.7483 42.2441 88.4905 33.668 84.9475 25.9449C81.4045 18.2218 75.7244 11.6745 68.5786 7.07687C62.549 3.19743 55.6885 0.843051 48.5875 0.188134C46.4042 -0.0132376 44.6182 1.77773 44.6122 3.97037C44.6061 6.16301 46.384 7.92311 48.563 8.16675C54.1457 8.79096 59.5283 10.6957 64.2822 13.7544C70.153 17.5316 74.8195 22.9107 77.7304 29.2558C80.6412 35.6008 81.6746 42.6466 80.7083 49.5603C79.7421 56.474 76.8167 62.9665 72.2778 68.2705C67.739 73.5744 61.7765 77.468 55.0951 79.491C48.4138 81.514 41.2929 81.5818 34.5743 79.6865C27.8556 77.7911 21.82 74.0118 17.181 68.7953C13.4244 64.5711 10.7107 59.5475 9.23134 54.1284C8.65389 52.0131 6.6402 50.5286 4.47483 50.8734Z" fill="#F92814"/>
<path d="M27.7947 52L33.8267 40.071V39.9698H26.8501V38.1818H35.9858V40.0305L29.9741 52H27.7947ZM42.8595 52.1889C42.2432 52.1799 41.636 52.0675 41.0377 51.8516C40.444 51.6357 39.9042 51.2758 39.4184 50.772C38.9326 50.2682 38.5435 49.5913 38.2512 48.7411C37.9633 47.891 37.8193 46.8294 37.8193 45.5565C37.8193 44.351 37.9385 43.2804 38.1769 42.3448C38.4198 41.4092 38.7684 40.6198 39.2227 39.9766C39.6771 39.3288 40.2258 38.8363 40.8691 38.4989C41.5123 38.1616 42.2342 37.9929 43.0349 37.9929C43.858 37.9929 44.589 38.1548 45.2277 38.4787C45.8664 38.8026 46.3837 39.2501 46.7796 39.8214C47.1799 40.3926 47.434 41.0426 47.542 41.7713H45.4841C45.3447 41.1955 45.068 40.7255 44.6542 40.3611C44.2404 39.9968 43.7006 39.8146 43.0349 39.8146C42.0228 39.8146 41.2334 40.2554 40.6666 41.1371C40.1044 42.0187 39.821 43.2444 39.8165 44.8143H39.9177C40.1561 44.4229 40.4485 44.0901 40.7948 43.8157C41.1457 43.5368 41.537 43.3232 41.9688 43.1747C42.4052 43.0218 42.864 42.9453 43.3453 42.9453C44.1459 42.9453 44.8701 43.141 45.5178 43.5323C46.1701 43.9192 46.6896 44.4544 47.0764 45.1381C47.4633 45.8219 47.6567 46.6045 47.6567 47.4862C47.6567 48.3678 47.4565 49.1662 47.0562 49.8814C46.6604 50.5966 46.1026 51.1634 45.3829 51.5817C44.6632 51.9955 43.8221 52.1979 42.8595 52.1889ZM42.8527 50.4347C43.3835 50.4347 43.858 50.3042 44.2764 50.0433C44.6947 49.7824 45.0253 49.4316 45.2682 48.9908C45.5111 48.55 45.6325 48.0574 45.6325 47.5131C45.6325 46.9824 45.5133 46.4988 45.2749 46.0625C45.041 45.6262 44.7172 45.2798 44.3034 45.0234C43.894 44.767 43.4262 44.6388 42.8999 44.6388C42.4996 44.6388 42.1285 44.7153 41.7867 44.8683C41.4493 45.0212 41.1524 45.2326 40.896 45.5025C40.6396 45.7724 40.4372 46.0827 40.2888 46.4336C40.1449 46.7799 40.0729 47.1465 40.0729 47.5334C40.0729 48.0507 40.1921 48.5297 40.4305 48.9705C40.6734 49.4113 41.004 49.7667 41.4223 50.0366C41.8451 50.302 42.3219 50.4347 42.8527 50.4347ZM57.3271 49.4091V48.6804C57.3271 48.1586 57.435 47.6818 57.6509 47.25C57.8713 46.8137 58.1907 46.4651 58.609 46.2042C59.0318 45.9388 59.5424 45.8061 60.1406 45.8061C60.7524 45.8061 61.2652 45.9366 61.679 46.1974C62.0928 46.4583 62.4054 46.8069 62.6168 47.2433C62.8327 47.6796 62.9407 48.1586 62.9407 48.6804V49.4091C62.9407 49.9309 62.8327 50.4099 62.6168 50.8462C62.4009 51.2781 62.0838 51.6267 61.6655 51.892C61.2517 52.1529 60.7434 52.2834 60.1406 52.2834C59.5334 52.2834 59.0206 52.1529 58.6023 51.892C58.1839 51.6267 57.8668 51.2781 57.6509 50.8462C57.435 50.4099 57.3271 49.9309 57.3271 49.4091ZM58.8991 48.6804V49.4091C58.8991 49.7959 58.9914 50.1468 59.1758 50.4616C59.3602 50.7765 59.6818 50.9339 60.1406 50.9339C60.5949 50.9339 60.9121 50.7765 61.092 50.4616C61.2719 50.1468 61.3619 49.7959 61.3619 49.4091V48.6804C61.3619 48.2936 61.2741 47.9427 61.0987 47.6278C60.9278 47.313 60.6084 47.1555 60.1406 47.1555C59.6908 47.1555 59.3714 47.313 59.1825 47.6278C58.9936 47.9427 58.8991 48.2936 58.8991 48.6804ZM50.3775 41.5014V40.7727C50.3775 40.2509 50.4854 39.7719 50.7013 39.3356C50.9218 38.8993 51.2411 38.5507 51.6594 38.2898C52.0823 38.0289 52.5928 37.8984 53.1911 37.8984C53.8028 37.8984 54.3156 38.0289 54.7294 38.2898C55.1432 38.5507 55.4558 38.8993 55.6673 39.3356C55.8787 39.7719 55.9844 40.2509 55.9844 40.7727V41.5014C55.9844 42.0232 55.8764 42.5022 55.6605 42.9386C55.4491 43.3704 55.1342 43.719 54.7159 43.9844C54.3021 44.2453 53.7938 44.3757 53.1911 44.3757C52.5793 44.3757 52.0643 44.2453 51.646 43.9844C51.2321 43.719 50.9173 43.3704 50.7013 42.9386C50.4854 42.5022 50.3775 42.0232 50.3775 41.5014ZM51.9563 40.7727V41.5014C51.9563 41.8883 52.0463 42.2391 52.2262 42.554C52.4106 42.8688 52.7322 43.0263 53.1911 43.0263C53.6409 43.0263 53.9557 42.8688 54.1357 42.554C54.3201 42.2391 54.4123 41.8883 54.4123 41.5014V40.7727C54.4123 40.3859 54.3246 40.035 54.1491 39.7202C53.9737 39.4053 53.6544 39.2479 53.1911 39.2479C52.7412 39.2479 52.4219 39.4053 52.233 39.7202C52.0485 40.035 51.9563 40.3859 51.9563 40.7727ZM51.0185 52L60.5185 38.1818H62.131L52.631 52H51.0185Z" fill="#222222"/>
</svg>
