<svg width="60" height="60" viewBox="0 0 60 60" fill="none" xmlns="http://www.w3.org/2000/svg">
<path d="M30 60C46.5685 60 60 46.5685 60 30C60 13.4315 46.5685 0 30 0C13.4315 0 0 13.4315 0 30C0 46.5685 13.4315 60 30 60Z" fill="#FEDD55"/>
<path d="M59.7281 34.0434L53.0176 27.3329L46.7241 25.7272L34.0008 13.0092L7.98767 31.1113L12.0397 35.1772L11.3511 36.9202L34.1445 59.7136C47.4303 57.8774 57.9359 47.3431 59.7281 34.0434Z" fill="#FCC63D"/>
<path d="M48.5537 25.3063H30.9317C27.657 25.3063 24.9778 27.9855 24.9778 31.2602V40.9724C24.9778 44.247 27.657 46.9263 30.9317 46.9263H41.175L49.1177 51.2441V46.8988C52.1304 46.6121 54.5076 44.0568 54.5076 40.9725V31.2603C54.5076 27.9855 51.8284 25.3063 48.5537 25.3063Z" fill="#FF807D"/>
<path d="M54.5076 31.2598V40.9723C54.5076 44.0567 52.131 46.6125 49.1181 46.8985V51.2438L41.1751 46.9266H39.7419V25.3067H48.5533C51.8287 25.3067 54.5076 27.9856 54.5076 31.2598Z" fill="#FC3E53"/>
<path d="M43.0705 42.0436L44.7151 41.423L40.571 30.4421L38.9497 30.444L34.7695 41.4196L36.4123 42.0453L37.419 39.4019H42.0736L43.0705 42.0436ZM38.0883 37.644L39.7568 33.2633L41.4101 37.644H38.0883Z" fill="white"/>
<path d="M40.5705 30.4418L39.7419 30.4429V33.3035L39.7572 33.2636L41.4095 37.6441H39.7419V39.4019H42.0728L43.0701 42.0433L44.7154 41.4234L40.5705 30.4418Z" fill="#EAE1DC"/>
<path d="M29.537 10.9826H11.9151C8.64044 10.9826 5.96118 13.6619 5.96118 16.9365V26.6487C5.96118 29.7331 8.33845 32.2884 11.3511 32.575V36.9203L19.2938 32.6025H29.5371C32.8118 32.6025 35.491 29.9233 35.491 26.6486V16.9364C35.491 13.6619 32.8117 10.9826 29.537 10.9826Z" fill="#238CF8"/>
<path d="M35.4914 16.936V26.6485C35.4914 29.9239 32.8113 32.6028 29.5371 32.6028H20.707V10.9828H29.5371C32.8113 10.9828 35.4914 13.6618 35.4914 16.936Z" fill="#0768DD"/>
<path d="M26.851 26.3818L25.3709 24.9019C26.0486 23.9593 26.4494 22.8051 26.4494 21.5582C26.4494 18.392 23.8736 15.8162 20.7075 15.8162C17.5415 15.8162 14.9656 18.392 14.9656 21.5582C14.9656 24.7242 17.5414 27.3 20.7075 27.3C21.9938 27.3 23.1827 26.8749 24.141 26.1577L25.6081 27.6247L26.851 26.3818ZM20.7075 25.5422C18.5107 25.5422 16.7234 23.755 16.7234 21.5582C16.7234 19.3614 18.5107 17.574 20.7075 17.574C22.9043 17.574 24.6916 19.3613 24.6916 21.5582C24.6916 22.3191 24.4769 23.0308 24.1052 23.6361L22.4965 22.0275L21.2535 23.2704L22.8789 24.8958C22.2538 25.304 21.5082 25.5422 20.7075 25.5422Z" fill="white"/>
<path d="M25.3711 24.9024C26.0484 23.959 26.4492 22.8047 26.4492 21.5578C26.4492 18.3926 23.8734 15.8168 20.707 15.8168V17.5746C22.9043 17.5746 24.6914 19.3618 24.6914 21.5578C24.6914 22.3196 24.477 23.0309 24.1055 23.6368L22.4965 22.0278L21.2531 23.27L22.8785 24.8953C22.2539 25.3043 21.5074 25.5422 20.707 25.5422V27.3C21.9938 27.3 23.182 26.8746 24.1406 26.1575L25.6078 27.6246L26.8512 26.3825L25.3711 24.9024Z" fill="#EAE1DC"/>
</svg>
