<svg width="25" height="19" viewBox="0 0 25 19" fill="none" xmlns="http://www.w3.org/2000/svg">
<path d="M20.9551 0.404297C22.0033 0.404297 22.5273 0.613932 22.5273 1.0332C22.5273 1.21289 22.3626 1.36263 22.0332 1.48242C19.278 2.59049 17.9004 4.74674 17.9004 7.95117C18.3197 7.89128 18.6191 7.86133 18.7988 7.86133C22.3926 7.86133 24.1895 9.6582 24.1895 13.252C24.1895 16.8158 22.3926 18.5977 18.7988 18.5977C14.6361 18.5977 12.5547 16.3066 12.5547 11.7246C12.5547 6.7832 14.5462 3.23438 18.5293 1.07812C19.3678 0.628906 20.1764 0.404297 20.9551 0.404297ZM9.23047 0.539062C10.2786 0.539062 10.8027 0.748698 10.8027 1.16797C10.8027 1.34766 10.638 1.4974 10.3086 1.61719C7.55339 2.72526 6.17578 4.88151 6.17578 8.08594C6.59505 8.02604 6.89453 7.99609 7.07422 7.99609C10.668 7.99609 12.4648 9.79297 12.4648 13.3867C12.4648 16.9505 10.668 18.7324 7.07422 18.7324C2.91146 18.7324 0.830078 16.4414 0.830078 11.8594C0.830078 6.91797 2.82161 3.36914 6.80469 1.21289C7.64323 0.763672 8.45182 0.539062 9.23047 0.539062Z" fill="#00DAF7"/>
</svg>
