<svg width="40" height="40" viewBox="0 0 40 40" fill="none" xmlns="http://www.w3.org/2000/svg">
<path d="M34.1358 34.1401C41.9451 26.3308 41.9451 13.6694 34.1358 5.86012C26.3265 -1.94919 13.6651 -1.94919 5.85582 5.86012C-1.95349 13.6694 -1.95349 26.3308 5.85582 34.1401C13.6651 41.9494 26.3265 41.9494 34.1358 34.1401Z" fill="#FFCE00"/>
<path d="M39.9443 21.5061L29.8248 11.3867L10.1755 33.9852L15.7347 39.5443C17.1091 39.8429 18.5362 40.0002 20.0001 40.0002C30.5392 40.0002 39.1744 31.8484 39.9443 21.5061Z" fill="#FFA300"/>
<path d="M24.4533 6.01514L29.8248 11.3866V33.9851H10.1755V6.01514H24.4533Z" fill="white"/>
<path d="M29.8249 11.3867L24.4534 6.01514H20.0098V33.9851H29.8249V11.3867Z" fill="#E9EDF5"/>
<path d="M24.4531 11.3866V6.01514L29.8247 11.3866H24.4531Z" fill="#BEC3D2"/>
<path d="M26.0786 17.632C26.6232 14.2721 24.3411 11.1069 20.9812 10.5623C17.6214 10.0176 14.4561 12.2998 13.9115 15.6596C13.3668 19.0195 15.649 22.1847 19.0088 22.7294C22.3687 23.274 25.5339 20.9918 26.0786 17.632Z" fill="#FF6C52"/>
<path d="M26.164 16.6471C26.164 13.2461 23.4095 10.4888 20.0098 10.4836V22.8104C23.4095 22.8054 26.164 20.0481 26.164 16.6471Z" fill="#FF432E"/>
<path d="M19.8421 19.6458L19.58 18.8992H17.4904L17.2281 19.6458H15.6787L17.673 14.4584H19.3892L21.3915 19.6458H19.8421ZM18.5311 15.7805L17.8557 17.7326H19.2064L18.5311 15.7805Z" fill="white"/>
<path d="M23.2582 15.5338V17.0348H22.3366V15.5338H21.0017V14.7173H22.3366V13.2784H23.2582V14.7173H24.593V15.5339H23.2582V15.5338Z" fill="#E9EDF5"/>
<path d="M12.8794 24.4342H15.0428V26.778H12.8794V24.4342Z" fill="#555A66"/>
<path d="M16.4536 24.4342H26.7169V26.778H16.4536V24.4342Z" fill="#DCE1EB"/>
<path d="M20.0098 24.4342H26.7173V26.778H20.0098V24.4342Z" fill="#BEC3D2"/>
<path d="M12.8794 28.9392H15.0428V31.283H12.8794V28.9392Z" fill="#555A66"/>
<path d="M16.4536 28.9392H26.7169V31.283H16.4536V28.9392Z" fill="#DCE1EB"/>
<path d="M20.0098 28.9392H26.7173V31.283H20.0098V28.9392Z" fill="#BEC3D2"/>
</svg>
